<svg width="125" height="37" viewBox="0 0 125 37" fill="none" xmlns="http://www.w3.org/2000/svg">
<path fill-rule="evenodd" clip-rule="evenodd" d="M22.8694 6.4442H17.035C16.5747 6.4442 16.2015 6.81812 16.2015 7.27937V27.6018C16.2015 27.8249 16.1124 28.0388 15.9541 28.1956C15.7958 28.3525 15.5814 28.4394 15.3588 28.437H10.4504C10.2302 28.437 10.0192 28.3487 9.86433 28.1918C9.70949 28.0349 9.62374 27.8224 9.62622 27.6018V7.27937C9.62622 7.05787 9.53841 6.84544 9.3821 6.68881C9.22579 6.53219 9.01379 6.4442 8.79273 6.4442H5.10687C2.5138 6.4442 0.939433 6.4442 0.0966848 4.30988C-0.204479 2.8204 0.206668 1.27549 1.208 0.134039C1.48583 -0.14435 2.05075 0.0412429 1.94888 0.412429C1.84701 0.783615 2.23597 1.2476 3.06019 1.2476H22.8694C23.0896 1.24758 23.3007 1.33587 23.4555 1.49277C23.6104 1.64966 23.6961 1.86212 23.6936 2.08276V5.42344C23.6936 6.07301 23.3324 6.4442 22.8694 6.4442ZM29.4354 23.7044C30.1868 23.6603 30.9169 23.4376 31.5654 23.0548C32.3163 22.6353 32.8119 21.8712 32.8897 21.0133V11.9192C32.8837 11.5558 32.6665 11.2294 32.3341 11.084C31.6676 10.9197 30.9753 10.8882 30.2967 10.9913C22.4897 11.3624 23.7955 24.4467 29.4354 23.7044ZM33.3342 25.653C33.2883 25.4975 33.1547 25.384 32.9941 25.3639C32.8334 25.3438 32.6762 25.4208 32.5934 25.5602C32.1643 26.2272 31.633 26.8222 31.019 27.3234C30.0538 28.0295 28.8793 28.3891 27.6851 28.3441C20.9153 28.3441 19.4428 21.1988 19.4428 18.6005C19.4428 15.0743 20.3689 7.37215 29.1668 7.37215C30.4405 7.31902 31.7153 7.44395 32.9545 7.74333L33.0564 7.37215C33.1498 6.97667 33.4783 6.68079 33.8806 6.62977H38.6963C38.919 6.6273 39.1334 6.71419 39.2917 6.87108C39.45 7.02798 39.5391 7.24182 39.5391 7.46494V21.8484C39.5391 22.8692 39.2613 25.8386 41.3913 26.581C41.5453 26.6294 41.6563 26.7643 41.6744 26.925C41.6924 27.0857 41.6141 27.2419 41.4746 27.3234C36.483 30.2929 34.0659 27.8616 33.3342 25.653ZM58.1444 17.487C58.1444 12.2904 54.6345 11.3624 53.5139 11.3624C52.8021 11.3947 52.1062 11.5849 51.4765 11.9192C51.18 12.1064 50.9037 12.3241 50.6523 12.5688C50.3686 12.8716 50.2041 13.2673 50.1893 13.6823V21.3659C50.1938 21.8541 50.3901 22.3209 50.7356 22.665C50.9705 22.8383 51.2182 22.9934 51.4765 23.129C52.1008 23.3678 52.7624 23.4934 53.4306 23.5002C54.6345 23.426 58.1444 22.034 58.1444 17.487ZM55.1161 28.5297C54.1872 28.5518 53.2655 28.3614 52.4211 27.973C51.9545 27.7196 51.5219 27.4078 51.1339 27.045C51.0165 26.9159 50.8325 26.8714 50.6693 26.9327C50.5061 26.994 50.3967 27.1488 50.393 27.3234V35.3967C50.393 35.6182 50.3052 35.8306 50.1489 35.9872C49.9926 36.1438 49.7806 36.2318 49.5595 36.2318H44.6512C44.4285 36.2343 44.2142 36.1474 44.0558 35.9905C43.8975 35.8336 43.8084 35.6198 43.8084 35.3967V11.7336C43.8084 8.02171 43.2621 6.81536 41.771 6.62977C41.6092 6.59934 41.4805 6.47633 41.4424 6.31584C41.4044 6.15535 41.4642 5.98747 41.5951 5.88739C46.2256 2.63952 49.4669 6.44417 49.8281 7.37214C49.9299 7.65053 50.0226 8.02171 50.1059 8.3001C50.1377 8.46312 50.261 8.59286 50.4219 8.63268C50.5828 8.6725 50.7522 8.61516 50.856 8.48569C51.2831 8.0075 51.7832 7.60031 52.3378 7.27934C53.1847 6.7963 54.1416 6.54059 55.1161 6.53697C57.6999 6.53697 63.914 8.67129 63.914 17.5797C63.914 26.4882 57.6814 28.5297 55.1161 28.5297ZM83.1676 6.4442H77.3424C76.8821 6.4442 76.5089 6.81812 76.5089 7.27937V27.6018C76.509 27.8249 76.4199 28.0388 76.2616 28.1956C76.1032 28.3525 75.8889 28.4394 75.6662 28.437H70.7486C70.5276 28.437 70.3156 28.349 70.1593 28.1923C70.003 28.0357 69.9151 27.8233 69.9151 27.6018V7.27937C69.9151 7.05787 69.8273 6.84544 69.671 6.68881C69.5147 6.53219 69.3027 6.4442 69.0816 6.4442H65.5532C62.9694 6.4442 61.3858 6.4442 60.5616 4.30988C60.2564 2.82182 60.6643 1.27644 61.6636 0.134039C61.9507 -0.14435 62.5064 0.0412429 62.4138 0.412429C62.3211 0.783615 62.6823 1.2476 63.5251 1.2476H83.3435C83.8039 1.2476 84.177 1.62151 84.177 2.08276V5.42344C84.0752 6.07301 83.714 6.4442 83.1491 6.4442H83.1676ZM89.8447 23.7044C90.5927 23.6578 91.3193 23.4353 91.9654 23.0548C92.7091 22.6322 93.1949 21.8673 93.262 21.0133V11.9192C93.2576 11.558 93.0444 11.2321 92.7156 11.084C92.049 10.9197 91.3568 10.8882 90.6782 10.9913C82.899 11.3624 84.177 24.4467 89.8261 23.7044H89.8447ZM93.725 25.6531C93.6832 25.4964 93.5509 25.3807 93.3903 25.3603C93.2297 25.3399 93.0728 25.419 92.9934 25.5603C92.5632 26.2292 92.0285 26.8245 91.4098 27.3234C90.4487 28.0308 89.2766 28.3906 88.0851 28.3442C81.3153 28.3442 79.8335 21.1988 79.8335 18.6005C79.8335 15.0743 80.7596 7.37215 89.5576 7.37215C90.8343 7.31888 92.1122 7.44381 93.3546 7.74334L93.4564 7.37215C93.5522 6.9781 93.8794 6.68331 94.2807 6.62978H99.1056C99.3267 6.62978 99.5387 6.71777 99.695 6.87439C99.8513 7.03102 99.9391 7.24345 99.9391 7.46495V21.8484C99.9391 22.8692 99.6613 25.8386 101.791 26.581C101.941 26.6334 102.048 26.766 102.067 26.9234C102.087 27.0808 102.016 27.2358 101.884 27.3234C96.7904 30.2929 94.4566 27.8616 93.7065 25.6531H93.725ZM118.461 17.487C118.461 12.2904 114.942 11.3624 113.831 11.3624C113.115 11.3924 112.416 11.5827 111.784 11.9192C111.488 12.1109 111.209 12.3282 110.95 12.5688C110.67 12.8739 110.506 13.2682 110.487 13.6823V21.3659C110.497 21.8568 110.7 22.3239 111.052 22.665C111.806 23.2736 112.763 23.5722 113.729 23.5002C114.923 23.426 118.443 22.034 118.443 17.487H118.461ZM115.405 28.5297C114.476 28.5518 113.554 28.3614 112.71 27.9729C112.242 27.7174 111.806 27.4058 111.413 27.045C111.295 26.9225 111.115 26.8824 110.956 26.9429C110.797 27.0034 110.689 27.153 110.682 27.3234V35.3967C110.682 35.8579 110.309 36.2318 109.848 36.2318H104.931C104.711 36.2318 104.499 36.1436 104.345 35.9867C104.19 35.8298 104.104 35.6173 104.107 35.3967V11.7336C104.107 8.02171 103.542 6.81536 102.06 6.62977C101.898 6.59934 101.769 6.47633 101.731 6.31584C101.693 6.15535 101.753 5.98747 101.884 5.88739C106.514 2.63952 109.756 6.44417 110.126 7.37214C110.219 7.65053 110.311 8.02171 110.395 8.3001C110.419 8.46854 110.542 8.60549 110.707 8.64628C110.872 8.68707 111.045 8.62354 111.145 8.48569C111.572 8.0075 112.072 7.60031 112.627 7.27934C113.473 6.7963 114.43 6.54059 115.405 6.53697C117.998 6.53697 124.203 8.67129 124.203 17.5797C124.203 26.4882 117.979 28.5297 115.386 28.5297H115.405Z" fill="#15C5CE"/>
</svg>
