<?xml version="1.0" encoding="utf-8"?>
<!-- Generator: Adobe Illustrator 23.0.6, SVG Export Plug-In . SVG Version: 6.00 Build 0)  -->
<svg version="1.1" id="图层_1" xmlns="http://www.w3.org/2000/svg" xmlns:xlink="http://www.w3.org/1999/xlink" x="0px" y="0px"
	 viewBox="0 0 169 169" style="enable-background:new 0 0 169 169;" xml:space="preserve">
<style type="text/css">
	.st0{fill-rule:evenodd;clip-rule:evenodd;fill:#14B9C8;}
</style>
<title>Combined Shape</title>
<desc>Created with Sketch.</desc>
<g id="Group-18" transform="translate(187.000000, 27.000000)">
	<g id="Group-3" transform="translate(0.000000, 0.408581)">
		<path id="Combined-Shape" class="st0" d="M-144.8,44.5h-6.3c-0.5,0-0.9,0.4-0.9,0.9v21.9c0,0.5-0.4,0.9-0.9,0.9h-5.3
			c-0.5,0-0.9-0.4-0.9-0.9V45.4c0-0.5-0.4-0.9-0.9-0.9h-4c-2.8,0-4.5,0-5.4-2.3c-0.4-1,0-3.1,1.2-4.5c0.3-0.3,0.9-0.1,0.8,0.3
			c-0.1,0.5,0.3,0.9,1.2,0.9h21.4c0.5,0,0.9,0.4,0.9,0.9v3.6C-143.9,44.1-144.3,44.5-144.8,44.5z M-137.7,63.1
			c0.9-0.1,1.7-0.3,2.3-0.7c0.7-0.4,1.4-1.3,1.4-2.2v-9.8c0-0.4-0.3-0.8-0.6-0.9c-1-0.3-2.2-0.1-2.2-0.1
			C-145.2,49.8-143.8,63.9-137.7,63.1z M-133.5,65.2c-0.1-0.4-0.6-0.4-0.8-0.1c-0.5,0.8-1.1,1.4-1.7,1.9c-0.9,0.7-2.1,1.1-3.6,1.1
			c-7.3,0-8.9-7.7-8.9-10.5c0-3.8,1-12.1,10.5-12.1c0,0,2.6-0.1,4.1,0.4l0.1-0.4c0.1-0.4,0.5-0.8,0.9-0.8h5.2c0.5,0,0.9,0.4,0.9,0.9
			v15.5c0,1.1-0.3,4.3,2,5.1c0.4,0.1,0.4,0.7,0.1,0.8C-130.1,70.2-132.7,67.6-133.5,65.2z M-106.7,56.4c0-5.6-3.8-6.6-5-6.6
			c-0.8,0-1.6,0.3-2.2,0.6c-0.3,0.2-0.6,0.4-0.9,0.7c-0.3,0.3-0.5,0.8-0.5,1.2v8.3c0,0.5,0.2,1,0.6,1.4c0.2,0.2,0.5,0.3,0.8,0.5
			c0.6,0.2,1.2,0.4,2.1,0.4C-110.5,62.8-106.7,61.3-106.7,56.4z M-110,68.3c-1.1,0-2.1-0.2-2.9-0.6c-0.5-0.3-1-0.6-1.4-1
			c-0.3-0.3-0.8-0.1-0.8,0.3v8.7c0,0.5-0.4,0.9-0.9,0.9h-5.3c-0.5,0-0.9-0.4-0.9-0.9V50.2c0-4-0.6-5.3-2.2-5.5
			c-0.4-0.1-0.5-0.6-0.2-0.8c5-3.5,8.5,0.6,8.9,1.6c0.1,0.3,0.2,0.7,0.3,1c0.1,0.4,0.5,0.5,0.8,0.2c0.5-0.5,1-1,1.6-1.3
			c0.9-0.5,1.9-0.8,3-0.8c2.8,0,9.5,2.3,9.5,11.9C-100.5,66.2-107.2,68.3-110,68.3z M-79.7,44.5H-86c-0.5,0-0.9,0.4-0.9,0.9v21.9
			c0,0.5-0.4,0.9-0.9,0.9h-5.3c-0.5,0-0.9-0.4-0.9-0.9V45.4c0-0.5-0.4-0.9-0.9-0.9h-3.8c-2.8,0-4.5,0-5.4-2.3c-0.4-1,0-3.1,1.2-4.5
			c0.3-0.3,0.9-0.1,0.8,0.3c-0.1,0.5,0.3,0.9,1.2,0.9h21.4c0.5,0,0.9,0.4,0.9,0.9v3.6C-78.7,44.1-79.1,44.5-79.7,44.5z M-72.5,63.1
			c0.9-0.1,1.7-0.3,2.3-0.7c0.7-0.4,1.4-1.3,1.4-2.2v-9.8c0-0.4-0.3-0.8-0.6-0.9c-1-0.3-2.2-0.1-2.2-0.1
			C-80,49.8-78.6,63.9-72.5,63.1z M-68.3,65.2c-0.1-0.4-0.6-0.4-0.8-0.1c-0.5,0.8-1.1,1.4-1.7,1.9c-0.9,0.7-2.1,1.1-3.6,1.1
			c-7.3,0-8.9-7.7-8.9-10.5c0-3.8,1-12.1,10.5-12.1c0,0,2.6-0.1,4.1,0.4l0.1-0.4c0.1-0.4,0.5-0.8,0.9-0.8h5.2c0.5,0,0.9,0.4,0.9,0.9
			v15.5c0,1.1-0.3,4.3,2,5.1c0.4,0.1,0.4,0.7,0.1,0.8C-65,70.2-67.5,67.6-68.3,65.2z M-41.6,56.4c0-5.6-3.8-6.6-5-6.6
			c-0.8,0-1.6,0.3-2.2,0.6c-0.3,0.2-0.6,0.4-0.9,0.7c-0.3,0.3-0.5,0.8-0.5,1.2v8.3c0,0.5,0.2,1,0.6,1.4c0.2,0.2,0.5,0.3,0.8,0.5
			c0.6,0.2,1.2,0.4,2.1,0.4C-45.4,62.8-41.6,61.3-41.6,56.4z M-44.9,68.3c-1.1,0-2.1-0.2-2.9-0.6c-0.5-0.3-1-0.6-1.4-1
			c-0.3-0.3-0.8-0.1-0.8,0.3v8.7c0,0.5-0.4,0.9-0.9,0.9h-5.3c-0.5,0-0.9-0.4-0.9-0.9V50.2c0-4-0.6-5.3-2.2-5.5
			c-0.4-0.1-0.5-0.6-0.2-0.8c5-3.5,8.5,0.6,8.9,1.6c0.1,0.3,0.2,0.7,0.3,1c0.1,0.4,0.5,0.5,0.8,0.2c0.5-0.5,1-1,1.6-1.3
			c0.9-0.5,1.9-0.8,3-0.8c2.8,0,9.5,2.3,9.5,11.9C-35.4,66.2-42.1,68.3-44.9,68.3z"/>
	</g>
</g>
</svg>
